<?xml version="1.0" encoding="iso-8859-1"?>
<!-- Generator: Adobe Illustrator 19.0.0, SVG Export Plug-In . SVG Version: 6.00 Build 0)  -->
<svg xmlns="http://www.w3.org/2000/svg" xmlns:xlink="http://www.w3.org/1999/xlink" version="1.1" id="Capa_1" x="0px" y="0px" viewBox="0 0 437.2 437.2" style="enable-background:new 0 0 437.2 437.2;" xml:space="preserve" width="512px" height="512px">
<g>
	<g>
		<g>
			<path d="M54,260.8v-63.6H21.2C9.6,197.2,0,206.8,0,218.4v122.4C0,352.4,9.6,362,21.2,362H40v0.8v26.4c0,3.6,3.2,6.8,6.8,6.8     c2,0,3.6-0.8,4.8-2l30.8-30.8h136c11.6,0,21.2-9.6,21.2-21.2v-30.4H104.8C76.8,311.6,54,288.8,54,260.8z" fill="#FFFFFF"/>
			<path d="M404.4,41.2h-300C86.4,41.2,72,56,72,73.6V260c0,18,14.8,32.4,32.4,32.4h206.8l47.2,47.2c2,2,4.4,3.2,7.2,3.2     c5.6,0,10.4-4.4,10.4-10.4v-40h28.8c18,0,32.4-14.8,32.4-32.4V73.6C437.2,56,422.4,41.2,404.4,41.2z M173.6,200.4     c0,2-0.4,3.6-0.8,5.2c-0.4,1.6-1.2,3.2-2.4,4.4s-2.4,2-3.6,2.4c-1.2,0.4-2.8,0.8-4.4,0.8s-3.2-0.4-4.4-0.8     c-1.6-0.8-2.8-1.6-3.6-2.8c-1.2-1.2-1.6-2.4-2.4-4.4c-0.4-1.6-0.8-3.2-0.8-4.8V180h-24v20.4c0,4-1.2,7.2-3.2,9.2     c-1.2,1.2-2.4,2-3.6,2.4c-1.2,0.4-2.8,0.8-4.4,0.8c-1.6,0-3.2-0.4-4.4-0.8c-1.6-0.8-2.8-1.6-3.6-2.8c-1.2-1.2-1.6-2.4-2.4-4.4     c-0.4-1.6-0.8-3.2-0.8-4.8v-56.8c0-2,0.4-3.6,0.8-4.8c0.4-1.6,1.2-3.2,2.4-4.4c1.2-1.2,2.4-2,3.6-2.8c1.2-0.4,2.8-0.8,4.4-0.8     c1.6,0,3.2,0.4,4.4,0.8c1.6,0.4,2.8,1.6,3.6,2.4c1.2,1.2,2,2.4,2.4,4.4c0.4,1.6,0.8,3.2,0.8,5.2V160h24v-16.8     c0-2,0.4-3.6,0.8-4.8c0.4-1.6,1.2-3.2,2.4-4.4c2-2.4,4.8-3.6,8-3.6c1.6,0,3.2,0.4,4.4,0.8c1.6,0.4,2.8,1.6,3.6,2.4     c1.2,1.2,2,2.4,2.4,4.4c0.4,1.6,0.8,3.2,0.8,5.2V200.4z M254.8,206c-0.4,1.2-1.2,2.4-2.4,3.2c-0.8,0.8-2.4,1.6-3.6,2     c-1.2,0.4-2.8,0.4-4,0.4h-40c-2,0-3.6-0.4-5.2-0.8c-1.6-0.4-3.2-1.6-4.4-2.4c-1.2-1.2-2-2.8-2.4-4.4c-0.4-1.6-0.8-3.2-0.8-5.2     v-54.4c0-1.2,0-2.4,0.4-3.6c0.4-1.2,0.4-2.4,1.2-3.2c0.4-1.2,1.2-2,2-2.8c0.8-0.8,1.6-1.6,2.8-2c0.8-0.4,2-0.8,3.2-0.8     s2.4-0.4,3.6-0.4H244c1.6,0,2.8,0,4,0.4c1.6,0.4,2.8,1.2,3.6,2s1.6,2,2.4,3.2c0.4,1.2,0.8,2.4,0.8,3.6s-0.4,2.8-0.8,3.6     c-0.4,1.2-1.2,2.4-2.4,3.2c-0.8,0.8-2.4,1.6-3.6,2c-1.6,0.8-2.8,0.8-4.4,0.8h-29.2V162h26.8c1.6,0,2.8,0,4,0.4     c1.2,0.4,2.4,1.2,3.6,2c0.8,0.8,1.6,2,2.4,3.2c0.4,1.2,0.8,2.4,0.8,3.6s-0.4,2.4-0.8,3.6c-0.4,1.2-1.2,2.4-2,3.2     c-0.8,0.8-2,1.6-3.6,2c-1.2,0.4-2.4,0.4-4,0.4h-27.2V192h30.4c1.6,0,2.8,0,4,0.4c1.6,0.4,2.8,1.2,3.6,2c1.2,0.8,1.6,2,2.4,3.2     c0.4,1.2,0.8,2.4,0.8,4C255.6,203.6,255.2,204.8,254.8,206z M326,209.2c-1.2,0.8-2.4,1.6-3.6,2c-1.2,0.4-2.8,0.4-4.4,0.4h-35.6     c-2,0-3.6-0.4-5.2-0.8c-1.6-0.4-3.2-1.6-4.4-2.4c-1.2-1.2-2-2.8-2.4-4.4c-0.4-1.6-0.8-3.2-0.8-5.2v-56c0-2,0.4-3.6,0.8-4.8     c0.4-1.6,1.2-3.2,2.4-4.4c2-2.4,4.8-3.6,8-3.6c1.6,0,3.2,0.4,4.4,0.8c1.6,0.4,2.8,1.6,3.6,2.4c1.2,1.2,2,2.4,2.4,4.4     c0.4,1.6,0.8,3.2,0.8,5.2v48.8h26c1.6,0,3.2,0.4,4.4,0.8c1.6,0.4,2.8,1.2,3.6,2c1.2,0.8,2,2,2.4,3.2c0.4,1.2,0.8,2.4,0.8,4     C329.2,204.8,328,207.2,326,209.2z M402.4,168.4c-1.2,3.2-3.6,6.4-6.4,8.4c-2.8,2.4-6,4-10,5.2c-3.6,1.2-8,1.6-12.8,1.6h-9.6     v16.8c0,2-0.4,3.6-0.8,5.2c-0.4,1.6-1.2,3.2-2.4,4.4c-1.2,1.2-2.4,2-3.6,2.8c-1.2,0.8-2.8,0.8-4.4,0.8c-1.6,0-3.2-0.4-4.4-0.8     c-1.6-0.4-2.8-1.6-3.6-2.8c-1.2-1.2-2-2.4-2.4-4.4c-0.4-1.6-0.8-3.2-0.8-4.8v-56c0-2,0.4-3.6,0.8-5.2c0.4-1.6,1.6-3.2,2.8-4.4     c1.2-1.2,2.8-2,4.4-2.4c1.6-0.4,3.2-0.8,5.2-0.8h18.8c2.8,0,5.6,0,7.6,0.4c2.4,0.4,4.4,0.8,6,1.2c1.6,0.4,3.2,1.2,4.8,2     c1.6,0.8,2.8,2,4.4,2.8c1.2,1.2,2.4,2.4,3.6,4c0.8,1.6,2,2.8,2.4,4.4c0.8,1.6,1.2,3.2,1.6,5.2c0.4,2,0.4,3.6,0.4,5.6     C404.4,161.2,404,165.2,402.4,168.4z" fill="#FFFFFF"/>
			<path d="M380.4,152.4c-0.4-0.4-1.6-0.8-2.8-1.2c-2-0.4-4.4-0.8-7.2-0.8h-6v14.4h6c1.6,0,3.2,0,4.4-0.4c1.2,0,2.4-0.4,3.2-0.8     c0.8-0.4,1.6-0.4,2-0.8c0.4-0.4,0.8-0.8,1.2-1.2c0.4-0.4,0.4-0.8,0.8-1.6c0.4-0.8,0.4-1.6,0.4-2.8s0-2.4-0.4-3.2     C381.2,153.6,380.8,152.8,380.4,152.4z" fill="#FFFFFF"/>
		</g>
	</g>
</g>
<g>
</g>
<g>
</g>
<g>
</g>
<g>
</g>
<g>
</g>
<g>
</g>
<g>
</g>
<g>
</g>
<g>
</g>
<g>
</g>
<g>
</g>
<g>
</g>
<g>
</g>
<g>
</g>
<g>
</g>
</svg>
